<svg width="590" height="255" viewBox="0 0 590 255" fill="none" xmlns="http://www.w3.org/2000/svg">
<rect x="365" y="127" width="128" height="128" rx="16" fill="#212528"/>
<path d="M365 143C365 134.163 372.163 127 381 127H477C485.837 127 493 134.163 493 143V167H365V143Z" fill="#1E1E1E"/>
<circle cx="385" cy="147" r="4" fill="#464A4D"/>
<circle cx="401" cy="147" r="4" fill="#464A4D"/>
<circle cx="417" cy="147" r="4" fill="#464A4D"/>
<path d="M238.592 120.096C244.16 120.288 246.944 122.688 246.944 127.296C246.944 131.712 244.16 134.208 238.592 134.784C230.912 135.168 225.536 137.184 222.464 140.832C219.584 144.288 218.144 150.048 218.144 158.112L217.568 228.096C217.568 236.736 215.36 243.36 210.944 247.968C206.528 252.576 200 254.88 191.36 254.88H172.352C169.664 254.88 167.552 254.208 166.016 252.864C164.672 251.712 164 250.08 164 247.968C164 245.664 164.768 243.84 166.304 242.496C167.84 241.152 169.856 240.48 172.352 240.48H187.616C196.064 240.48 200.288 236.064 200.288 227.232V156.384C200.288 148.128 202.208 141.6 206.048 136.8C210.08 131.808 214.88 128.64 220.448 127.296C214.88 125.952 210.08 122.88 206.048 118.08C202.208 113.088 200.288 106.464 200.288 98.208V27.648C200.288 18.816 196.064 14.4 187.616 14.4H172.352C169.856 14.4 167.84 13.728 166.304 12.384C164.768 11.04 164 9.216 164 6.912C164 4.8 164.672 3.16801 166.016 2.01601C167.552 0.672005 169.664 0 172.352 0H191.36C200 0 206.528 2.304 210.944 6.912C215.36 11.52 217.568 18.144 217.568 26.784V96.48C217.568 104.352 219.104 110.112 222.176 113.76C225.248 117.408 230.72 119.52 238.592 120.096Z" fill="#DBEAF7"/>
<path d="M74.88 240.48C77.376 240.48 79.392 241.152 80.928 242.496C82.464 243.84 83.232 245.664 83.232 247.968C83.232 250.08 82.464 251.712 80.928 252.864C79.584 254.208 77.568 254.88 74.88 254.88H55.872C47.232 254.88 40.704 252.576 36.288 247.968C31.872 243.36 29.664 236.736 29.664 228.096V158.112C29.664 150.24 28.032 144.48 24.768 140.832C21.696 137.184 16.224 135.168 8.352 134.784C2.784 134.208 0 131.712 0 127.296C0 125.376 0.671999 123.744 2.016 122.4C3.552 121.056 5.664 120.288 8.352 120.096C16.224 119.52 21.696 117.408 24.768 113.76C28.032 110.112 29.664 104.352 29.664 96.48V26.784C29.664 18.144 31.872 11.52 36.288 6.912C40.704 2.304 47.232 0 55.872 0H74.88C77.568 0 79.584 0.672005 80.928 2.01601C82.464 3.16801 83.232 4.8 83.232 6.912C83.232 9.216 82.464 11.04 80.928 12.384C79.392 13.728 77.376 14.4 74.88 14.4H59.616C51.168 14.4 46.944 18.816 46.944 27.648V98.208C46.944 106.464 44.928 113.088 40.896 118.08C37.056 122.88 32.256 125.952 26.496 127.296C32.256 128.64 37.056 131.808 40.896 136.8C44.928 141.6 46.944 148.128 46.944 156.384V227.232C46.944 236.064 51.168 240.48 59.616 240.48H74.88Z" fill="#DBEAF7"/>
<path fill-rule="evenodd" clip-rule="evenodd" d="M366.351 94.6576C368.879 91.8279 370.417 88.0935 370.417 84C370.417 79.2212 368.322 74.9318 365 72H382.417C382.417 82.4744 375.707 91.3816 366.351 94.6576Z" fill="#1070CA"/>
<path d="M589 135C588.72 135 588.47 135.11 588.29 135.29L582 141.59L579.71 139.29C579.53 139.11 579.28 139 579 139C578.45 139 578 139.45 578 140C578 140.28 578.11 140.53 578.29 140.71L581.29 143.71C581.47 143.89 581.72 144 582 144C582.28 144 582.53 143.89 582.71 143.71L589.71 136.71C589.89 136.53 590 136.28 590 136C590 135.45 589.55 135 589 135Z" fill="#06C847"/>
<path d="M589 189C588.72 189 588.47 189.11 588.29 189.29L582 195.59L579.71 193.29C579.53 193.11 579.28 193 579 193C578.45 193 578 193.45 578 194C578 194.28 578.11 194.53 578.29 194.71L581.29 197.71C581.47 197.89 581.72 198 582 198C582.28 198 582.53 197.89 582.71 197.71L589.71 190.71C589.89 190.53 590 190.28 590 190C590 189.45 589.55 189 589 189Z" fill="#DBEAF7"/>
<circle cx="585" cy="243" r="1" fill="#DBEAF7"/>
<path d="M545.001 127C538.371 126.997 533 132.365 533 138.991C533 144.23 536.36 148.683 541.038 150.319C541.669 150.477 541.572 150.029 541.572 149.724V147.646C537.934 148.072 537.786 145.664 537.542 145.262C537.049 144.42 535.882 144.206 536.231 143.803C537.059 143.377 537.904 143.911 538.883 145.356C539.591 146.404 540.971 146.227 541.671 146.053C541.824 145.423 542.151 144.86 542.602 144.423C538.832 143.747 537.261 141.447 537.261 138.712C537.261 137.385 537.698 136.165 538.556 135.181C538.009 133.558 538.607 132.169 538.687 131.963C540.245 131.824 541.864 133.078 541.99 133.178C542.875 132.939 543.886 132.813 545.017 132.813C546.154 132.813 547.168 132.944 548.061 133.186C548.364 132.955 549.865 131.877 551.313 132.009C551.391 132.215 551.975 133.572 551.461 135.172C552.329 136.159 552.772 137.39 552.772 138.72C552.772 141.46 551.19 143.763 547.409 144.428C547.733 144.747 547.99 145.126 548.165 145.545C548.341 145.964 548.431 146.414 548.431 146.868V149.885C548.452 150.126 548.431 150.365 548.833 150.365C553.581 148.764 557 144.278 557 138.993C557 132.365 551.627 127 545.001 127Z" fill="#4DA8FF"/>
<path d="M544.997 187.998C542.794 187.998 540.995 189.797 540.995 192C540.995 194.203 542.794 196.002 544.997 196.002C547.2 196.002 548.999 194.203 548.999 192C548.999 189.797 547.2 187.998 544.997 187.998ZM556.999 192C556.999 190.343 557.014 188.701 556.921 187.047C556.828 185.125 556.39 183.42 554.985 182.015C553.577 180.607 551.875 180.172 549.953 180.079C548.296 179.986 546.654 180.001 545 180.001C543.343 180.001 541.701 179.986 540.047 180.079C538.125 180.172 536.42 180.61 535.015 182.015C533.607 183.423 533.172 185.125 533.079 187.047C532.986 188.704 533.001 190.346 533.001 192C533.001 193.654 532.986 195.299 533.079 196.953C533.172 198.875 533.61 200.58 535.015 201.985C536.423 203.393 538.125 203.828 540.047 203.921C541.704 204.014 543.346 203.999 545 203.999C546.657 203.999 548.299 204.014 549.953 203.921C551.875 203.828 553.58 203.39 554.985 201.985C556.393 200.577 556.828 198.875 556.921 196.953C557.017 195.299 556.999 193.657 556.999 192ZM544.997 198.157C541.59 198.157 538.84 195.407 538.84 192C538.84 188.593 541.59 185.843 544.997 185.843C548.404 185.843 551.154 188.593 551.154 192C551.154 195.407 548.404 198.157 544.997 198.157ZM551.406 187.029C550.611 187.029 549.968 186.386 549.968 185.591C549.968 184.795 550.611 184.153 551.406 184.153C552.202 184.153 552.844 184.795 552.844 185.591C552.845 185.78 552.808 185.967 552.735 186.141C552.663 186.316 552.557 186.474 552.424 186.608C552.29 186.742 552.131 186.847 551.957 186.92C551.782 186.992 551.595 187.029 551.406 187.029Z" fill="#4DA8FF"/>
<path d="M557 231H533V255H543.125V247.031H540.078V243.562H543.125V240.919C543.125 237.912 544.916 236.25 547.658 236.25C548.97 236.25 550.344 236.484 550.344 236.484V239.438H548.83C547.339 239.438 546.875 240.363 546.875 241.312V243.562H550.203L549.671 247.031H546.875V255H557V231Z" fill="#4DA8FF"/>
</svg>
